<?xml version="1.0" encoding="utf-8"?>
<!-- Generator: Adobe Illustrator 27.2.0, SVG Export Plug-In . SVG Version: 6.00 Build 0)  -->
<svg version="1.1" id="Layer_1" xmlns="http://www.w3.org/2000/svg" xmlns:xlink="http://www.w3.org/1999/xlink" x="0px" y="0px"
	 viewBox="0 0 42 42" style="enable-background:new 0 0 42 42;" xml:space="preserve">
<style type="text/css">
	.st0{fill:#E21E1E;}
	.st1{fill:none;}
	.st2{fill:#FFFFFF;}
</style>
<path class="st0" d="M33.5,42h-25C3.8,42,0,38.2,0,33.5v-25C0,3.8,3.8,0,8.5,0h25.1C38.2,0,42,3.8,42,8.5v25.1
	C42,38.2,38.2,42,33.5,42z"/>
<g>
	<path class="st1" d="M9,9h24v24H9V9z"/>
</g>
<path class="st1" d="M8.9,8.8h24v24h-24V8.8z"/>
<circle class="st2" cx="12.5" cy="29.3" r="3.2"/>
<path class="st2" d="M9.3,9.6v4.2c10.3,0,18.7,8.4,18.7,18.7h4.2C32.1,19.8,21.9,9.6,9.3,9.6z M9.3,17.9v4.2
	c5.7,0,10.4,4.7,10.4,10.4h4.2C23.8,24.4,17.3,17.9,9.3,17.9z"/>
</svg>
