<?xml version="1.0" encoding="utf-8"?>
<!-- Generator: Adobe Illustrator 27.2.0, SVG Export Plug-In . SVG Version: 6.00 Build 0)  -->
<svg version="1.1" id="Layer_1" xmlns="http://www.w3.org/2000/svg" xmlns:xlink="http://www.w3.org/1999/xlink" x="0px" y="0px"
	 viewBox="0 0 42 42" style="enable-background:new 0 0 42 42;" xml:space="preserve">
<style type="text/css">
	.st0{fill:#EAA10F;}
	.st1{fill:none;}
	.st2{fill:#FFFFFF;}
</style>
<path class="st0" d="M33.5,42h-25C3.8,42,0,38.2,0,33.5v-25C0,3.8,3.8,0,8.5,0h25.1C38.2,0,42,3.8,42,8.5v25.1
	C42,38.2,38.2,42,33.5,42z"/>
<g>
	<path class="st1" d="M9,9h24v24H9V9z"/>
</g>
<g>
	<path class="st2" d="M26.3,9H11.7C10.2,9,9,10.2,9,11.7v18.7c0,1.5,1.2,2.7,2.7,2.7h18.7c1.5,0,2.7-1.2,2.7-2.7V15.7L26.3,9z
		 M30.3,30.3H11.7V11.7H25V17h5.3V30.3z M14.3,27.7h13.3V25H14.3V27.7z M21,14.3h-6.7V17H21V14.3z M14.3,22.3h13.3v-2.7H14.3V22.3z"
		/>
</g>
</svg>
