<?xml version="1.0" encoding="utf-8"?>
<!-- Generator: Adobe Illustrator 27.2.0, SVG Export Plug-In . SVG Version: 6.00 Build 0)  -->
<svg version="1.1" id="Layer_1" xmlns="http://www.w3.org/2000/svg" xmlns:xlink="http://www.w3.org/1999/xlink" x="0px" y="0px"
	 viewBox="0 0 42 42" style="enable-background:new 0 0 42 42;" xml:space="preserve">
<style type="text/css">
	.st0{fill:#00A4FF;}
	.st1{fill:none;}
	.st2{fill:#FFFFFF;}
</style>
<path class="st0" d="M33.5,42h-25C3.8,42,0,38.2,0,33.5v-25C0,3.8,3.8,0,8.5,0h25.1C38.2,0,42,3.8,42,8.5v25.1
	C42,38.2,38.2,42,33.5,42z"/>
<g>
	<path class="st1" d="M9,9h24v24H9V9z"/>
</g>
<path class="st1" d="M8.9,8.8h24v24h-24V8.8z"/>
<rect x="3.9" y="4.3" class="st1" width="34.3" height="34.3"/>
<path class="st2" d="M14.9,27.5c-1.6-1.5-2.5-3.7-2.5-6.1s1-4.5,2.5-6.1l2,2c-1,1-1.7,2.5-1.7,4s0.6,3,1.7,4L14.9,27.5z M27.1,27.5
	c1.6-1.5,2.5-3.7,2.5-6.1s-1-4.5-2.5-6.1l-2,2c1,1,1.7,2.5,1.7,4s-0.6,3-1.7,4L27.1,27.5z M21,18.6c-1.6,0-2.9,1.3-2.9,2.9
	s1.3,2.9,2.9,2.9s2.9-1.3,2.9-2.9S22.6,18.6,21,18.6z M32.4,21.5c0,3.2-1.3,6-3.4,8.1l2,2c2.6-2.6,4.2-6.2,4.2-10.1
	s-1.6-7.5-4.2-10.1l-2,2C31.1,15.5,32.4,18.3,32.4,21.5z M12.9,13.4l-2-2C8.3,14,6.7,17.5,6.7,21.5s1.6,7.5,4.2,10.1l2-2
	c-2.1-2.1-3.4-4.9-3.4-8.1S10.9,15.5,12.9,13.4z"/>
</svg>
